<!-- 6 Input Methods — Start from Anywhere
     @paulasilvatech visual identity · purple/blue/gray
     57 tools · Plugin-first
     Canvas: 1400x520
-->
<svg xmlns="http://www.w3.org/2000/svg" viewBox="0 0 1400 520" width="1400" height="520"
     font-family="-apple-system, BlinkMacSystemFont, 'Segoe UI', Helvetica, Arial, sans-serif">
<defs>
  <marker id="arr" markerWidth="9" markerHeight="8" refX="8" refY="4" orient="auto">
    <path d="M1,1.2 L8,4 L1,6.8" fill="#0058A3" stroke="none"/>
  </marker>
</defs>
<rect width="1400" height="520" fill="#FFF"/>

<!-- ============= TITLE ============= -->
<text x="700" y="38" text-anchor="middle" font-size="22" font-weight="700" fill="#2C2C2A">6 Input Methods — Start from Anywhere</text>
<text x="700" y="58" text-anchor="middle" font-size="13" fill="#5F5E5A">Any input converges into the Specky pipeline as structured Markdown</text>
<rect x="460" y="68" width="48" height="3" rx="1.5" fill="#3D1A6E"/>
<rect x="512" y="68" width="48" height="3" rx="1.5" fill="#5B2D8E"/>
<rect x="564" y="68" width="48" height="3" rx="1.5" fill="#8661C5"/>
<rect x="616" y="68" width="48" height="3" rx="1.5" fill="#0058A3"/>
<rect x="668" y="68" width="48" height="3" rx="1.5" fill="#3A7FD5"/>

<!-- ============= LEFT COLUMN: 6 Input Cards ============= -->
<rect x="60" y="100" width="320" height="54" rx="8" fill="#FFF" stroke="#0058A3" stroke-width="2"/>
<rect x="60" y="100" width="5" height="54" rx="2" fill="#0058A3"/>
<text x="80" y="123" font-size="10" font-weight="700" fill="#0058A3">1</text>
<text x="100" y="123" font-size="13" font-weight="600" fill="#2C2C2A">Natural Language Prompt</text>
<text x="100" y="142" font-size="10" fill="#5F5E5A">Type your idea directly in the AI chat</text>

<rect x="60" y="166" width="320" height="54" rx="8" fill="#FFF" stroke="#0058A3" stroke-width="2"/>
<rect x="60" y="166" width="5" height="54" rx="2" fill="#0058A3"/>
<text x="80" y="189" font-size="10" font-weight="700" fill="#0058A3">2</text>
<text x="100" y="189" font-size="13" font-weight="600" fill="#2C2C2A">Meeting Transcript</text>
<text x="100" y="208" font-size="10" fill="#5F5E5A">VTT · SRT · TXT · MD — Teams, Zoom, Meet</text>

<rect x="60" y="232" width="320" height="54" rx="8" fill="#FFF" stroke="#5B2D8E" stroke-width="2"/>
<rect x="60" y="232" width="5" height="54" rx="2" fill="#5B2D8E"/>
<text x="80" y="255" font-size="10" font-weight="700" fill="#5B2D8E">3</text>
<text x="100" y="255" font-size="13" font-weight="600" fill="#2C2C2A">Documents</text>
<text x="100" y="274" font-size="10" fill="#5F5E5A">PDF · DOCX · PPTX — RFPs, PRDs, architecture</text>

<rect x="60" y="298" width="320" height="54" rx="8" fill="#FFF" stroke="#8661C5" stroke-width="2"/>
<rect x="60" y="298" width="5" height="54" rx="2" fill="#8661C5"/>
<text x="80" y="321" font-size="10" font-weight="700" fill="#8661C5">4</text>
<text x="100" y="321" font-size="13" font-weight="600" fill="#2C2C2A">Figma Design</text>
<text x="100" y="340" font-size="10" fill="#5F5E5A">Design-to-spec via Figma MCP server</text>

<rect x="60" y="364" width="320" height="54" rx="8" fill="#FFF" stroke="#3D1A6E" stroke-width="2"/>
<rect x="60" y="364" width="5" height="54" rx="2" fill="#3D1A6E"/>
<text x="80" y="387" font-size="10" font-weight="700" fill="#3D1A6E">5</text>
<text x="100" y="387" font-size="13" font-weight="600" fill="#2C2C2A">Codebase Scan</text>
<text x="100" y="406" font-size="10" fill="#5F5E5A">Auto-detect tech stack, framework, structure</text>

<rect x="60" y="430" width="320" height="54" rx="8" fill="#FFF" stroke="#0058A3" stroke-width="2"/>
<rect x="60" y="430" width="5" height="54" rx="2" fill="#0058A3"/>
<text x="80" y="453" font-size="10" font-weight="700" fill="#0058A3">6</text>
<text x="100" y="453" font-size="13" font-weight="600" fill="#2C2C2A">Raw Text</text>
<text x="100" y="472" font-size="10" fill="#5F5E5A">Paste anything — emails, notes, requirements</text>

<!-- ============= CONVERGENCE ARROWS ============= -->
<path d="M380,127 L490,127 Q510,127 510,147 L510,256" stroke="#0058A3" stroke-width="1.5" fill="none" opacity="0.5"/>
<path d="M380,193 L460,193 Q480,193 480,213 L480,256" stroke="#0058A3" stroke-width="1.5" fill="none" opacity="0.5"/>
<path d="M380,259 L440,259 Q450,259 450,263" stroke="#5B2D8E" stroke-width="1.5" fill="none" opacity="0.5"/>
<path d="M380,325 L460,325 Q480,325 480,305 L480,276" stroke="#8661C5" stroke-width="1.5" fill="none" opacity="0.5"/>
<path d="M380,391 L490,391 Q510,391 510,371 L510,276" stroke="#3D1A6E" stroke-width="1.5" fill="none" opacity="0.5"/>
<path d="M380,457 L520,457 Q540,457 540,437 L540,276" stroke="#0058A3" stroke-width="1.5" fill="none" opacity="0.5"/>

<!-- ============= CENTER: Specky Hub ============= -->
<rect x="440" y="236" width="220" height="52" rx="10" fill="#5B2D8E"/>
<text x="550" y="258" text-anchor="middle" font-size="14" font-weight="700" fill="#FFF">Specky</text>
<text x="550" y="276" text-anchor="middle" font-size="10" fill="#FFF" opacity="0.85">Convert · Validate · Structure</text>

<!-- ============= RIGHT: Output ============= -->
<path d="M660,262 L720,262" stroke="#0058A3" stroke-width="2" fill="none" marker-end="url(#arr)"/>
<rect x="730" y="222" width="200" height="80" rx="8" fill="#FFF" stroke="#0058A3" stroke-width="2"/>
<rect x="730" y="222" width="200" height="6" rx="3" fill="#0058A3"/>
<text x="830" y="252" text-anchor="middle" font-size="13" font-weight="600" fill="#2C2C2A">Structured Markdown</text>
<text x="830" y="272" text-anchor="middle" font-size="10" fill="#5F5E5A">Topics · Decisions · Requirements</text>
<text x="830" y="290" text-anchor="middle" font-size="10" fill="#5F5E5A">Action Items · Constraints</text>

<path d="M930,262 L990,262" stroke="#5B2D8E" stroke-width="2" fill="none" marker-end="url(#arr)"/>
<rect x="1000" y="222" width="180" height="80" rx="8" fill="#FFF" stroke="#8661C5" stroke-width="2"/>
<rect x="1000" y="222" width="180" height="6" rx="3" fill="#8661C5"/>
<text x="1090" y="252" text-anchor="middle" font-size="13" font-weight="600" fill="#2C2C2A">10-Phase Pipeline</text>
<text x="1090" y="272" text-anchor="middle" font-size="10" fill="#5F5E5A">Init → Discover → Specify →</text>
<text x="1090" y="290" text-anchor="middle" font-size="10" fill="#5F5E5A">... → Verify → Release</text>

<rect x="1220" y="246" width="120" height="32" rx="16" fill="#2C2C2A"/>
<text x="1280" y="259" text-anchor="middle" font-size="10" font-weight="600" fill="#FFF">57 MCP tools</text>
<text x="1280" y="272" text-anchor="middle" font-size="8" fill="#FFF" opacity="0.7">state machine enforced</text>

<!-- ============= BOTTOM ============= -->
<line x1="60" y1="500" x2="1340" y2="500" stroke="#E8E6DF" stroke-width="1"/>
<text x="700" y="515" text-anchor="middle" font-size="9" fill="#888780" font-style="italic">sdd_import_transcript · sdd_import_document · sdd_batch_import · sdd_figma_to_spec · sdd_scan_codebase · sdd_auto_pipeline</text>
</svg>
