<svg xmlns="http://www.w3.org/2000/svg" viewBox="0 0 1400 520" font-family="-apple-system, BlinkMacSystemFont, 'Segoe UI', Helvetica, Arial, sans-serif">
  <defs>
    <filter id="shadow" x="-4%" y="-4%" width="108%" height="116%">
      <feDropShadow dx="0" dy="2" stdDeviation="3" flood-color="#2C2C2A" flood-opacity="0.10"/>
    </filter>
    <marker id="arrow" markerWidth="10" markerHeight="7" refX="10" refY="3.5" orient="auto" markerUnits="strokeWidth">
      <polygon points="0 0, 10 3.5, 0 7" fill="#0078D4"/>
    </marker>
    <linearGradient id="accent-bar" x1="0" y1="0" x2="1" y2="0">
      <stop offset="0%" stop-color="#0078D4"/>
      <stop offset="33%" stop-color="#7FBA00"/>
      <stop offset="66%" stop-color="#FFB900"/>
      <stop offset="100%" stop-color="#F25022"/>
    </linearGradient>
  </defs>

  <!-- Background -->
  <rect width="1400" height="520" fill="#FFFFFF"/>

  <!-- Title -->
  <text x="700" y="38" text-anchor="middle" font-size="22" font-weight="700" fill="#2C2C2A">6 Input Methods — Start from Anywhere</text>
  <text x="700" y="58" text-anchor="middle" font-size="13" fill="#5F5E5A">Any input converges into the Specky pipeline as structured Markdown</text>
  <rect x="460" y="68" width="480" height="3" rx="1.5" fill="url(#accent-bar)"/>

  <!-- ============================================================ -->
  <!-- LEFT COLUMN: 6 Input Cards                                    -->
  <!-- ============================================================ -->

  <!-- Card 1: Natural Language Prompt (Blue) -->
  <g filter="url(#shadow)">
    <rect x="60" y="100" width="320" height="54" rx="8" fill="#FFFFFF" stroke="#0078D4" stroke-width="2"/>
    <rect x="60" y="100" width="5" height="54" rx="2" fill="#0078D4"/>
  </g>
  <text x="80" y="123" font-size="10" font-weight="700" fill="#0078D4">1</text>
  <text x="100" y="123" font-size="13" font-weight="600" fill="#2C2C2A">Natural Language Prompt</text>
  <text x="100" y="142" font-size="10" fill="#5F5E5A">Type your idea directly in the AI chat</text>

  <!-- Card 2: Meeting Transcript (Blue) -->
  <g filter="url(#shadow)">
    <rect x="60" y="166" width="320" height="54" rx="8" fill="#FFFFFF" stroke="#0078D4" stroke-width="2"/>
    <rect x="60" y="166" width="5" height="54" rx="2" fill="#0078D4"/>
  </g>
  <text x="80" y="189" font-size="10" font-weight="700" fill="#0078D4">2</text>
  <text x="100" y="189" font-size="13" font-weight="600" fill="#2C2C2A">Meeting Transcript</text>
  <text x="100" y="208" font-size="10" fill="#5F5E5A">VTT · SRT · TXT · MD — Teams, Zoom, Meet</text>

  <!-- Card 3: Documents (Green) -->
  <g filter="url(#shadow)">
    <rect x="60" y="232" width="320" height="54" rx="8" fill="#FFFFFF" stroke="#7FBA00" stroke-width="2"/>
    <rect x="60" y="232" width="5" height="54" rx="2" fill="#7FBA00"/>
  </g>
  <text x="80" y="255" font-size="10" font-weight="700" fill="#7FBA00">3</text>
  <text x="100" y="255" font-size="13" font-weight="600" fill="#2C2C2A">Documents</text>
  <text x="100" y="274" font-size="10" fill="#5F5E5A">PDF · DOCX · PPTX — RFPs, PRDs, architecture</text>

  <!-- Card 4: Figma Design (Yellow) -->
  <g filter="url(#shadow)">
    <rect x="60" y="298" width="320" height="54" rx="8" fill="#FFFFFF" stroke="#FFB900" stroke-width="2"/>
    <rect x="60" y="298" width="5" height="54" rx="2" fill="#FFB900"/>
  </g>
  <text x="80" y="321" font-size="10" font-weight="700" fill="#FFB900">4</text>
  <text x="100" y="321" font-size="13" font-weight="600" fill="#2C2C2A">Figma Design</text>
  <text x="100" y="340" font-size="10" fill="#5F5E5A">Design-to-spec via Figma MCP server</text>

  <!-- Card 5: Codebase Scan (Red) -->
  <g filter="url(#shadow)">
    <rect x="60" y="364" width="320" height="54" rx="8" fill="#FFFFFF" stroke="#F25022" stroke-width="2"/>
    <rect x="60" y="364" width="5" height="54" rx="2" fill="#F25022"/>
  </g>
  <text x="80" y="387" font-size="10" font-weight="700" fill="#F25022">5</text>
  <text x="100" y="387" font-size="13" font-weight="600" fill="#2C2C2A">Codebase Scan</text>
  <text x="100" y="406" font-size="10" fill="#5F5E5A">Auto-detect tech stack, framework, structure</text>

  <!-- Card 6: Raw Text (Blue) -->
  <g filter="url(#shadow)">
    <rect x="60" y="430" width="320" height="54" rx="8" fill="#FFFFFF" stroke="#0078D4" stroke-width="2"/>
    <rect x="60" y="430" width="5" height="54" rx="2" fill="#0078D4"/>
  </g>
  <text x="80" y="453" font-size="10" font-weight="700" fill="#0078D4">6</text>
  <text x="100" y="453" font-size="13" font-weight="600" fill="#2C2C2A">Raw Text</text>
  <text x="100" y="472" font-size="10" fill="#5F5E5A">Paste anything — emails, notes, requirements</text>

  <!-- ============================================================ -->
  <!-- CONVERGENCE ARROWS                                            -->
  <!-- ============================================================ -->

  <!-- Arrow from card 1 -->
  <path d="M380,127 L490,127 Q510,127 510,147 L510,256" stroke="#0078D4" stroke-width="1.5" fill="none" opacity="0.5"/>
  <!-- Arrow from card 2 -->
  <path d="M380,193 L460,193 Q480,193 480,213 L480,256" stroke="#0078D4" stroke-width="1.5" fill="none" opacity="0.5"/>
  <!-- Arrow from card 3 -->
  <path d="M380,259 L440,259 Q450,259 450,263 L450,263" stroke="#7FBA00" stroke-width="1.5" fill="none" opacity="0.5"/>
  <!-- Arrow from card 4 -->
  <path d="M380,325 L460,325 Q480,325 480,305 L480,276" stroke="#FFB900" stroke-width="1.5" fill="none" opacity="0.5"/>
  <!-- Arrow from card 5 -->
  <path d="M380,391 L490,391 Q510,391 510,371 L510,276" stroke="#F25022" stroke-width="1.5" fill="none" opacity="0.5"/>
  <!-- Arrow from card 6 -->
  <path d="M380,457 L520,457 Q540,457 540,437 L540,276" stroke="#0078D4" stroke-width="1.5" fill="none" opacity="0.5"/>

  <!-- ============================================================ -->
  <!-- CENTER: Specky Converter Hub                                  -->
  <!-- ============================================================ -->

  <g filter="url(#shadow)">
    <rect x="440" y="236" width="220" height="52" rx="10" fill="#0078D4"/>
  </g>
  <text x="550" y="258" text-anchor="middle" font-size="14" font-weight="700" fill="#FFFFFF">Specky</text>
  <text x="550" y="276" text-anchor="middle" font-size="10" fill="#FFFFFF" opacity="0.85">Convert · Validate · Structure</text>

  <!-- ============================================================ -->
  <!-- RIGHT: Output Pipeline                                        -->
  <!-- ============================================================ -->

  <!-- Arrow from hub to output -->
  <path d="M660,262 L720,262" stroke="#0078D4" stroke-width="2" fill="none" marker-end="url(#arrow)"/>

  <!-- Output: Structured Markdown -->
  <g filter="url(#shadow)">
    <rect x="730" y="222" width="200" height="80" rx="8" fill="#FFFFFF" stroke="#7FBA00" stroke-width="2"/>
    <rect x="730" y="222" width="200" height="6" rx="3" fill="#7FBA00"/>
  </g>
  <text x="830" y="252" text-anchor="middle" font-size="13" font-weight="600" fill="#2C2C2A">Structured Markdown</text>
  <text x="830" y="272" text-anchor="middle" font-size="10" fill="#5F5E5A">Topics · Decisions · Requirements</text>
  <text x="830" y="290" text-anchor="middle" font-size="10" fill="#5F5E5A">Action Items · Constraints</text>

  <!-- Arrow to pipeline -->
  <path d="M930,262 L990,262" stroke="#7FBA00" stroke-width="2" fill="none" marker-end="url(#arrow)"/>

  <!-- Pipeline entry -->
  <g filter="url(#shadow)">
    <rect x="1000" y="222" width="180" height="80" rx="8" fill="#FFFFFF" stroke="#FFB900" stroke-width="2"/>
    <rect x="1000" y="222" width="180" height="6" rx="3" fill="#FFB900"/>
  </g>
  <text x="1090" y="252" text-anchor="middle" font-size="13" font-weight="600" fill="#2C2C2A">10-Phase Pipeline</text>
  <text x="1090" y="272" text-anchor="middle" font-size="10" fill="#5F5E5A">Init → Discover → Specify →</text>
  <text x="1090" y="290" text-anchor="middle" font-size="10" fill="#5F5E5A">... → Verify → Release</text>

  <!-- Right side badge -->
  <g transform="translate(1220, 262)">
    <rect x="0" y="-16" width="120" height="32" rx="16" fill="#2C2C2A"/>
    <text x="60" y="-3" text-anchor="middle" font-size="10" font-weight="600" fill="#FFFFFF">53 MCP tools</text>
    <text x="60" y="10" text-anchor="middle" font-size="8" fill="#FFFFFF" opacity="0.7">state machine enforced</text>
  </g>

  <!-- ============================================================ -->
  <!-- BOTTOM: Tool mapping                                          -->
  <!-- ============================================================ -->
  <line x1="60" y1="500" x2="1340" y2="500" stroke="#B4B2A9" stroke-width="0.5" opacity="0.4"/>
  <text x="700" y="515" text-anchor="middle" font-size="9" fill="#888780" font-style="italic">sdd_import_transcript · sdd_import_document · sdd_batch_import · sdd_figma_to_spec · sdd_scan_codebase · sdd_auto_pipeline</text>

</svg>