<!-- Specky Pipeline — 10 Mandatory Phases
     @paulasilvatech visual identity · purple/blue/gray
     Canvas: 1400x600
-->
<svg xmlns="http://www.w3.org/2000/svg" viewBox="0 0 1400 600" width="1400" height="600"
     font-family="-apple-system, BlinkMacSystemFont, 'Segoe UI', Helvetica, Arial, sans-serif">
<defs>
  <marker id="arr-b" markerWidth="8" markerHeight="6" refX="8" refY="3" orient="auto">
    <polygon points="0 0, 8 3, 0 6" fill="#0058A3"/>
  </marker>
  <marker id="arr-p" markerWidth="8" markerHeight="6" refX="8" refY="3" orient="auto">
    <polygon points="0 0, 8 3, 0 6" fill="#5B2D8E"/>
  </marker>
  <marker id="arr-lp" markerWidth="8" markerHeight="6" refX="8" refY="3" orient="auto">
    <polygon points="0 0, 8 3, 0 6" fill="#8661C5"/>
  </marker>
  <marker id="arr-dp" markerWidth="8" markerHeight="6" refX="8" refY="3" orient="auto">
    <polygon points="0 0, 8 3, 0 6" fill="#3D1A6E"/>
  </marker>
</defs>
<rect width="1400" height="600" fill="#FFF"/>

<!-- ============= TITLE ============= -->
<text x="700" y="42" text-anchor="middle" font-size="22" font-weight="700" fill="#2C2C2A">Specky Pipeline — 10 Mandatory Phases</text>
<text x="700" y="64" text-anchor="middle" font-size="13" fill="#5F5E5A">State machine enforcement · Every phase produces artifacts and diagrams</text>
<rect x="460" y="74" width="48" height="3" rx="1.5" fill="#3D1A6E"/>
<rect x="512" y="74" width="48" height="3" rx="1.5" fill="#5B2D8E"/>
<rect x="564" y="74" width="48" height="3" rx="1.5" fill="#8661C5"/>
<rect x="616" y="74" width="48" height="3" rx="1.5" fill="#0058A3"/>
<rect x="668" y="74" width="48" height="3" rx="1.5" fill="#3A7FD5"/>

<!-- ============= ROW 1: Phases 1-5 ============= -->
<!-- Phase 1: Init (Blue) -->
<rect x="60" y="120" width="200" height="100" rx="8" fill="#FFF" stroke="#0058A3" stroke-width="2"/>
<rect x="60" y="120" width="200" height="6" rx="3" fill="#0058A3"/>
<text x="76" y="148" font-size="11" fill="#888780">Phase 1</text>
<text x="160" y="172" text-anchor="middle" font-size="16" font-weight="700" fill="#2C2C2A">Init</text>
<text x="160" y="192" text-anchor="middle" font-size="11" fill="#5F5E5A">CONSTITUTION.md</text>
<path d="M260,170 L310,170" fill="none" stroke="#0058A3" stroke-width="2" marker-end="url(#arr-b)"/>

<!-- Phase 2: Discover (Blue) -->
<rect x="310" y="120" width="200" height="100" rx="8" fill="#FFF" stroke="#0058A3" stroke-width="2"/>
<rect x="310" y="120" width="200" height="6" rx="3" fill="#0058A3"/>
<text x="326" y="148" font-size="11" fill="#888780">Phase 2</text>
<text x="410" y="172" text-anchor="middle" font-size="16" font-weight="700" fill="#2C2C2A">Discover</text>
<text x="410" y="192" text-anchor="middle" font-size="11" fill="#5F5E5A">Codebase Scan</text>
<path d="M510,170 L560,170" fill="none" stroke="#0058A3" stroke-width="2" marker-end="url(#arr-p)"/>

<!-- Phase 3: Specify (Purple) -->
<rect x="560" y="120" width="200" height="100" rx="8" fill="#FFF" stroke="#5B2D8E" stroke-width="2"/>
<rect x="560" y="120" width="200" height="6" rx="3" fill="#5B2D8E"/>
<text x="576" y="148" font-size="11" fill="#888780">Phase 3</text>
<text x="660" y="172" text-anchor="middle" font-size="16" font-weight="700" fill="#2C2C2A">Specify</text>
<text x="660" y="192" text-anchor="middle" font-size="11" fill="#5F5E5A">SPECIFICATION.md</text>
<path d="M760,170 L810,170" fill="none" stroke="#5B2D8E" stroke-width="2" marker-end="url(#arr-p)"/>

<!-- Phase 4: Clarify (Purple) -->
<rect x="810" y="120" width="200" height="100" rx="8" fill="#FFF" stroke="#5B2D8E" stroke-width="2"/>
<rect x="810" y="120" width="200" height="6" rx="3" fill="#5B2D8E"/>
<text x="826" y="148" font-size="11" fill="#888780">Phase 4</text>
<text x="910" y="172" text-anchor="middle" font-size="16" font-weight="700" fill="#2C2C2A">Clarify</text>
<text x="910" y="192" text-anchor="middle" font-size="11" fill="#5F5E5A">EARS Validation</text>
<path d="M1010,170 L1060,170" fill="none" stroke="#5B2D8E" stroke-width="2" marker-end="url(#arr-lp)"/>

<!-- Phase 5: Design (Light purple) -->
<rect x="1060" y="120" width="200" height="100" rx="8" fill="#FFF" stroke="#8661C5" stroke-width="2"/>
<rect x="1060" y="120" width="200" height="6" rx="3" fill="#8661C5"/>
<text x="1076" y="148" font-size="11" fill="#888780">Phase 5</text>
<text x="1160" y="172" text-anchor="middle" font-size="16" font-weight="700" fill="#2C2C2A">Design</text>
<text x="1160" y="192" text-anchor="middle" font-size="11" fill="#5F5E5A">DESIGN.md</text>

<!-- Vertical: Phase 5 → Phase 6 -->
<path d="M1160,220 L1160,310" fill="none" stroke="#8661C5" stroke-width="2" marker-end="url(#arr-lp)"/>

<!-- ============= ROW 2: Phases 6-10 (right to left) ============= -->
<!-- Phase 6: Tasks (Light purple) -->
<rect x="1060" y="320" width="200" height="100" rx="8" fill="#FFF" stroke="#8661C5" stroke-width="2"/>
<rect x="1060" y="320" width="200" height="6" rx="3" fill="#8661C5"/>
<text x="1076" y="348" font-size="11" fill="#888780">Phase 6</text>
<text x="1160" y="372" text-anchor="middle" font-size="16" font-weight="700" fill="#2C2C2A">Tasks</text>
<text x="1160" y="392" text-anchor="middle" font-size="11" fill="#5F5E5A">TASKS.md</text>
<path d="M1060,370 L1010,370" fill="none" stroke="#8661C5" stroke-width="2" marker-end="url(#arr-dp)"/>

<!-- Phase 7: Analyze (Dark purple) -->
<rect x="810" y="320" width="200" height="100" rx="8" fill="#FFF" stroke="#3D1A6E" stroke-width="2"/>
<rect x="810" y="320" width="200" height="6" rx="3" fill="#3D1A6E"/>
<text x="826" y="348" font-size="11" fill="#888780">Phase 7</text>
<text x="910" y="372" text-anchor="middle" font-size="16" font-weight="700" fill="#2C2C2A">Analyze</text>
<text x="910" y="392" text-anchor="middle" font-size="11" fill="#5F5E5A">Quality Gate</text>
<path d="M810,370 L760,370" fill="none" stroke="#3D1A6E" stroke-width="2" marker-end="url(#arr-b)"/>

<!-- Phase 8: Implement (Blue) -->
<rect x="560" y="320" width="200" height="100" rx="8" fill="#FFF" stroke="#0058A3" stroke-width="2"/>
<rect x="560" y="320" width="200" height="6" rx="3" fill="#0058A3"/>
<text x="576" y="348" font-size="11" fill="#888780">Phase 8</text>
<text x="660" y="372" text-anchor="middle" font-size="16" font-weight="700" fill="#2C2C2A">Implement</text>
<text x="660" y="392" text-anchor="middle" font-size="11" fill="#5F5E5A">CHECKLIST.md</text>
<path d="M560,370 L510,370" fill="none" stroke="#0058A3" stroke-width="2" marker-end="url(#arr-p)"/>

<!-- Phase 9: Verify (Purple) -->
<rect x="310" y="320" width="200" height="100" rx="8" fill="#FFF" stroke="#5B2D8E" stroke-width="2"/>
<rect x="310" y="320" width="200" height="6" rx="3" fill="#5B2D8E"/>
<text x="326" y="348" font-size="11" fill="#888780">Phase 9</text>
<text x="410" y="372" text-anchor="middle" font-size="16" font-weight="700" fill="#2C2C2A">Verify</text>
<text x="410" y="392" text-anchor="middle" font-size="11" fill="#5F5E5A">VERIFICATION.md</text>
<path d="M310,370 L260,370" fill="none" stroke="#5B2D8E" stroke-width="2" marker-end="url(#arr-p)"/>

<!-- Phase 10: Release (Purple) -->
<rect x="60" y="320" width="200" height="100" rx="8" fill="#FFF" stroke="#5B2D8E" stroke-width="2"/>
<rect x="60" y="320" width="200" height="6" rx="3" fill="#5B2D8E"/>
<text x="76" y="348" font-size="11" fill="#888780">Phase 10</text>
<text x="160" y="372" text-anchor="middle" font-size="16" font-weight="700" fill="#2C2C2A">Release</text>
<text x="160" y="392" text-anchor="middle" font-size="11" fill="#5F5E5A">PR + Docs</text>

<!-- ============= MANDATORY BADGE ============= -->
<rect x="1290" y="240" width="60" height="28" rx="14" fill="#2C2C2A"/>
<text x="1308" y="259" font-size="9" font-weight="600" fill="#FFF">🔒 ALL</text>
<text x="1320" y="282" text-anchor="middle" font-size="10" font-weight="600" fill="#5F5E5A">Mandatory</text>

<!-- ============= LEGEND ============= -->
<rect x="200" y="470" width="14" height="14" rx="3" fill="#0058A3"/>
<text x="220" y="482" font-size="12" fill="#5F5E5A">Foundation</text>
<rect x="340" y="470" width="14" height="14" rx="3" fill="#5B2D8E"/>
<text x="360" y="482" font-size="12" fill="#5F5E5A">Specification</text>
<rect x="500" y="470" width="14" height="14" rx="3" fill="#8661C5"/>
<text x="520" y="482" font-size="12" fill="#5F5E5A">Architecture</text>
<rect x="660" y="470" width="14" height="14" rx="3" fill="#3D1A6E"/>
<text x="680" y="482" font-size="12" fill="#5F5E5A">Quality Gate</text>

<text x="700" y="510" text-anchor="middle" font-size="10" fill="#B4B2A9">Row 1: left to right · Row 2: right to left · Sequential enforcement</text>
<text x="1360" y="590" text-anchor="end" font-size="9" fill="#9590A8" opacity="0.6">Paula Silva, AI-Native Software Engineer @paulasilvatech</text>
</svg>
