<svg xmlns="http://www.w3.org/2000/svg" viewBox="0 0 128 128" fill="none">
  <defs>
    <linearGradient id="g" x1="0" y1="0" x2="1" y2="1">
      <stop offset="0%" stop-color="#0078D4"/>
      <stop offset="100%" stop-color="#005A9E"/>
    </linearGradient>
  </defs>

  <!-- Shield -->
  <path d="M64 8 L112 32 L112 72 Q112 100 64 120 Q16 100 16 72 L16 32 Z" fill="url(#g)"/>

  <!-- Document -->
  <rect x="42" y="30" width="44" height="56" rx="4" fill="white" opacity="0.95"/>
  <rect x="42" y="30" width="44" height="12" rx="4" fill="#FFB900"/>
  <rect x="42" y="38" width="44" height="4" fill="#FFB900"/>

  <!-- Spec lines -->
  <rect x="48" y="50" width="26" height="2.5" rx="1" fill="#0078D4" opacity="0.6"/>
  <rect x="48" y="56" width="32" height="2.5" rx="1" fill="#2C2C2A" opacity="0.3"/>
  <rect x="48" y="64" width="22" height="2.5" rx="1" fill="#0078D4" opacity="0.6"/>
  <rect x="48" y="70" width="30" height="2.5" rx="1" fill="#2C2C2A" opacity="0.3"/>
  <rect x="48" y="78" width="28" height="2.5" rx="1" fill="#2C2C2A" opacity="0.3"/>

  <!-- Checkmark -->
  <circle cx="90" cy="36" r="12" fill="#7FBA00"/>
  <path d="M84 36 L88 40 L96 32" stroke="white" stroke-width="2.5" stroke-linecap="round" stroke-linejoin="round" fill="none"/>

  <!-- Pipeline dots -->
  <circle cx="44" cy="100" r="5" fill="#F25022"/>
  <circle cx="64" cy="100" r="5" fill="#FFB900"/>
  <circle cx="84" cy="100" r="5" fill="#7FBA00"/>
  <line x1="49" y1="100" x2="59" y2="100" stroke="white" stroke-width="2" stroke-linecap="round" opacity="0.7"/>
  <line x1="69" y1="100" x2="79" y2="100" stroke="white" stroke-width="2" stroke-linecap="round" opacity="0.7"/>
</svg>
