<svg xmlns="http://www.w3.org/2000/svg" viewBox="0 0 480 120" fill="none">
  <defs>
    <linearGradient id="hg" x1="0" y1="0" x2="1" y2="1">
      <stop offset="0%" stop-color="#0078D4"/>
      <stop offset="100%" stop-color="#005A9E"/>
    </linearGradient>
  </defs>

  <!-- Shield icon (left) -->
  <path d="M52 10 L92 28 L92 58 Q92 80 52 96 Q12 80 12 58 L12 28 Z" fill="url(#hg)"/>

  <!-- Document inside shield -->
  <rect x="34" y="24" width="36" height="44" rx="3" fill="white" opacity="0.95"/>
  <rect x="34" y="24" width="36" height="10" rx="3" fill="#FFB900"/>
  <rect x="34" y="30" width="36" height="4" fill="#FFB900"/>

  <!-- Spec lines -->
  <rect x="39" y="40" width="20" height="2" rx="1" fill="#0078D4" opacity="0.6"/>
  <rect x="39" y="45" width="26" height="2" rx="1" fill="#2C2C2A" opacity="0.3"/>
  <rect x="39" y="51" width="18" height="2" rx="1" fill="#0078D4" opacity="0.6"/>
  <rect x="39" y="56" width="24" height="2" rx="1" fill="#2C2C2A" opacity="0.3"/>
  <rect x="39" y="62" width="22" height="2" rx="1" fill="#2C2C2A" opacity="0.3"/>

  <!-- Checkmark -->
  <circle cx="74" cy="30" r="10" fill="#7FBA00"/>
  <path d="M69 30 L72 33 L79 26" stroke="white" stroke-width="2" stroke-linecap="round" stroke-linejoin="round" fill="none"/>

  <!-- Pipeline dots -->
  <circle cx="36" cy="82" r="4" fill="#F25022"/>
  <circle cx="52" cy="82" r="4" fill="#FFB900"/>
  <circle cx="68" cy="82" r="4" fill="#7FBA00"/>
  <line x1="40" y1="82" x2="48" y2="82" stroke="white" stroke-width="1.5" stroke-linecap="round" opacity="0.7"/>
  <line x1="56" y1="82" x2="64" y2="82" stroke="white" stroke-width="1.5" stroke-linecap="round" opacity="0.7"/>

  <!-- SPECKY text -->
  <text x="120" y="62" font-family="system-ui, -apple-system, 'Segoe UI', sans-serif" font-size="48" font-weight="800" letter-spacing="3" fill="#0078D4">SPECKY</text>

  <!-- Subtitle -->
  <text x="122" y="82" font-family="system-ui, -apple-system, 'Segoe UI', sans-serif" font-size="14" font-weight="500" letter-spacing="4" fill="#5F5E5A">SPEC-DRIVEN DEVELOPMENT</text>

  <!-- Colored bar under subtitle -->
  <rect x="122" y="90" width="40" height="3" rx="1.5" fill="#F25022"/>
  <rect x="166" y="90" width="40" height="3" rx="1.5" fill="#7FBA00"/>
  <rect x="210" y="90" width="40" height="3" rx="1.5" fill="#0078D4"/>
  <rect x="254" y="90" width="40" height="3" rx="1.5" fill="#FFB900"/>
</svg>
